<?xml version="1.0" encoding="UTF-8" standalone="no"?>
<!-- Generator: Adobe Illustrator 16.2.0, SVG Export Plug-In . SVG Version: 6.00 Build 0)  -->

<svg
   version="1.1"
   id="Ebene_1"
   x="0px"
   y="0px"
   width="400"
   height="124.46266"
   viewBox="0 0 400 124.46266"
   enable-background="new 0 0 377.138 117.349"
   xml:space="preserve"
   sodipodi:docname="TAG24 Logo 01.11.2022.svg"
   inkscape:version="1.1.1 (3bf5ae0d25, 2021-09-20)"
   xmlns:inkscape="http://www.inkscape.org/namespaces/inkscape"
   xmlns:sodipodi="http://sodipodi.sourceforge.net/DTD/sodipodi-0.dtd"
   xmlns="http://www.w3.org/2000/svg"
   xmlns:svg="http://www.w3.org/2000/svg"><defs
   id="defs31" /><sodipodi:namedview
   id="namedview29"
   pagecolor="#ffffff"
   bordercolor="#111111"
   borderopacity="1"
   inkscape:pageshadow="0"
   inkscape:pageopacity="0"
   inkscape:pagecheckerboard="1"
   showgrid="false"
   inkscape:zoom="2.8053392"
   inkscape:cx="188.39077"
   inkscape:cy="58.638186"
   inkscape:window-width="1600"
   inkscape:window-height="829"
   inkscape:window-x="-8"
   inkscape:window-y="-8"
   inkscape:window-maximized="1"
   inkscape:current-layer="Ebene_1" />
<rect
   fill="#d71b1d"
   width="261.68777"
   height="124.46266"
   id="rect2"
   x="0"
   y="0"
   style="stroke-width:1.06062" />
<rect
   x="262.39838"
   y="1.0616804"
   fill="#ffffff"
   width="136.53993"
   height="122.34036"
   id="rect6"
   style="stroke-width:1.06062" /><path
   fill="#d71b1d"
   d="M 397.87876,2.1223001 V 122.34142 H 263.459 V 2.1223001 H 397.87876 M 400,0.00106062 H 261.33776 V 124.46266 H 399.99894 V 0.00106062 Z"
   id="path8"
   style="stroke-width:1.06062" />
<path
   fill="#d71b1d"
   d="m 329.56531,104.55695 h -53.16993 c 0.5494,-11.784543 2.87958,-22.827716 10.85438,-32.129351 l 13.29275,-15.508381 c 1.43608,-1.611081 4.98173,-6.077351 5.98083,-9.550881 0.66289,-2.109572 0.66289,-4.342177 0.66289,-7.319336 0,-4.838548 -0.88456,-7.691615 -4.65294,-7.691615 -4.2096,0 -4.54263,5.209764 -4.54263,8.684355 v 5.459009 h -20.82421 c 0,-10.545741 1.66305,-17.98811 5.76447,-22.825597 4.09717,-4.838547 10.63271,-6.948119 20.15813,-6.948119 23.48213,0 26.25352,12.902439 26.25352,24.190614 0,12.405008 -3.54565,19.600253 -9.0842,25.554572 -5.53644,5.955379 -11.41121,11.291357 -16.94765,19.475099 h 26.25459 z"
   id="path12"
   style="stroke-width:1.06062" /><path
   fill="#d71b1d"
   d="m 354.26077,18.462207 h 24.8132 v 52.351129 h 6.97888 V 89.42297 h -6.97888 v 15.13398 H 358.91371 V 89.42297 H 329.77955 V 70.813336 Z m -7.30873,52.351129 h 11.96167 V 43.769655 h -0.22273 z"
   id="path14"
   style="stroke-width:1.06062" />
<path
   fill="#ffffff"
   d="m 13.167594,19.687223 h 77.410391 v 22.33453 H 65.712816 V 104.77756 H 38.032763 V 42.021753 H 13.167594 Z"
   id="path18"
   style="stroke-width:1.06062" /><path
   fill="#ffffff"
   d="M 75.093997,104.77756 105.3556,19.687223 h 28.14991 l 30.26054,85.090337 H 136.20372 L 132.91898,93.548781 H 105.3556 l -3.16701,11.228779 z m 44.101633,-59.445613 -8.56239,30.490696 h 17.47583 z"
   id="path20"
   style="stroke-width:1.06062" /><path
   fill="#ffffff"
   d="m 243.21707,104.98226 h -14.04685 l -0.0605,-14.850796 c 0.23334,10.510746 -17.01977,16.890366 -30.27433,16.890366 -21.58149,0 -40.93356,-14.063815 -40.93356,-43.726166 0,-27.181563 16.89037,-45.853773 44.2183,-45.853773 20.29178,0 36.5935,10.634834 39.99597,31.553437 h -26.27261 c -1.99397,-6.973575 -7.03721,-10.755745 -14.19216,-10.755745 -10.90741,0 -16.06732,9.92634 -16.06732,24.937291 0,12.053943 2.98034,22.1118 16.93491,22.1118 5.63295,0 13.56002,-2.965493 14.96641,-8.876326 H 206.10387 V 62.197922 h 37.11426 v 42.784338 z"
   id="path22"
   style="stroke-width:1.06062" />
</svg>
