<?xml version="1.0" encoding="UTF-8"?>
<svg width="505.55" height="515" version="1.2" viewBox="0 0 379.16 386.25" xmlns="http://www.w3.org/2000/svg" xmlns:cc="http://creativecommons.org/ns#" xmlns:dc="http://purl.org/dc/elements/1.1/" xmlns:rdf="http://www.w3.org/1999/02/22-rdf-syntax-ns#" xmlns:xlink="http://www.w3.org/1999/xlink">
 <metadata>
  <rdf:RDF>
   <cc:Work rdf:about="">
    <dc:format>image/svg+xml</dc:format>
    <dc:type rdf:resource="http://purl.org/dc/dcmitype/StillImage"/>
    <dc:title/>
   </cc:Work>
  </rdf:RDF>
 </metadata>
 <defs></defs>
 <g transform="matrix(4.2569 0 0 4.2569 -1189.2 -1358.8)" stroke-width=".23492">
  <path d="m357.4 340.96 9.1406-6.9258-12.789-13.473s-4.957 3.043-29.898 3.043c-22.812 0-29.895-3.043-29.895-3.043l-12.789 13.473 9.1406 6.9258v41.113s-0.19531 6.457 3.0586 10.047c4.4023 4.8555 9.3555 5.6328 17.48 7.4805 12.262 2.7852 13.004 9.8477 13.004 9.8477s0.7461-7.0625 13.004-9.8477c8.1289-1.8476 13.082-2.625 17.48-7.4805 3.2539-3.5898 3.0625-10.047 3.0625-10.047z"/>
  <path d="m291.34 375.26v6.8477c-4e-3 0.0586-0.13672 6.0938 2.793 9.3242 3.832 4.2305 8.0586 5.1758 15.066 6.7422 0.60937 0.13672 1.2344 0.27735 1.8789 0.42188 7.9688 1.8125 11.348 5.3945 12.773 7.9258 1.4258-2.5312 4.8086-6.1133 12.777-7.9258 0.64453-0.14453 1.2695-0.28516 1.875-0.42188 7.0078-1.5664 11.238-2.5117 15.07-6.7422 2.9297-3.2305 2.793-9.2656 2.793-9.3242v-21.859z" fill="#fff"/>
  <g fill="#e10226">
   <path d="m292.96 374.88s-0.10157 6.6719 0 8.8945c0.082 1.8477 0.68359 4.8125 2.3164 6.6133 1.168 1.2891 2.375 2.2383 3.7188 2.9961v-19.895z"/>
   <path d="m348.71 362.01v31.375c1.3438-0.75781 2.5469-1.707 3.7188-2.9961 1.6328-1.8008 2.2344-4.7656 2.3164-6.6133 0.25782-5.7812 0-23.156 0-23.156z"/>
   <path d="m337.56 364.59v32.215c0.19922-0.0469 0.40235-0.0898 0.59766-0.13281 2.0664-0.46485 3.8516-0.86719 5.4375-1.3008v-32.176z"/>
   <path d="m326.41 367.16v34.223c1.5195-1.1641 3.4922-2.2695 6.0352-3.1836v-32.43z"/>
   <path d="m315.26 369.73v28.465c2.543 0.91406 4.5117 2.0195 6.0352 3.1836v-33.039z"/>
   <path d="m304.11 372.31v23.059c1.5859 0.43359 3.3672 0.83593 5.4297 1.2969 0.19922 0.043 0.40235 0.0899 0.60547 0.13672v-25.883z"/>
  </g>
  <path d="m356.37 340.45 0.40625-0.3086 8.2226-6.2305-11.496-12.113c-2.1797 0.83985-9.4961 2.8398-29.648 2.8398-19.176 0-27.336-2.1289-29.609-2.875l-11.535 12.148 8.2227 6.2305 0.41015 0.3086v15.012z" fill="#5ca1d4"/>
  <path d="m356.37 341.51-65.027 15.012v17.68l65.027-15.012z" fill="#fff"/>
  <g fill="#e10226">
   <path d="m313.4 352.96c-0.12891 0.0195-14.695 3.4102-15.578 3.6133-0.35156 0.0781-0.44922 0.0781-0.2539 0.27344l0.043 0.043c0.20704 0.21484 0.83985 0.85547 1.1367 1.8633 0.28907 0.98438-0.15625 5.0898-0.17578 5.2656l-0.0234 0.0781s-0.51562 1.0391-0.8125 1.6289l8.3516-2.0195s0.0976-0.0274 0.0703-0.0781c-0.0234-0.0469-0.10938-0.0859-0.22656-0.11719-0.33985-0.082-0.44922-0.47656-0.46485-0.68359l0.082-2.8047 0.16016-0.0547c2.8242-0.91407 4.6562-0.89844 4.9961-0.78516 0.0391 0.0156 0.10157 0.0234 0.13282-8e-3 0.0391-0.0391 0.043-0.0977 0.043-0.16016-0.0117-0.47656 0.0312-1.5078 0.0312-1.7695 0-0.0703-4e-3 -0.0703-0.0391-0.0859-0.0391-0.0195-0.0937-8e-3 -0.13672 8e-3 -1.6484 0.54688-4.8164 1.2266-4.9609 1.25l-0.27735 0.043 0.0195-2.2148 0.17579-0.043s2.4766-0.64062 4.375-1.1484c1.7344-0.45703 3.1875-0.11328 3.7344 0.0586 0.0156 0 0.0234-4e-3 0.0273-0.17188 0-0.41406-0.0117-1.5469-0.0391-1.8633-0.0117-0.17969-0.27734-0.13672-0.39062-0.11719"/>
   <path d="m313.83 354.95c-4e-3 0.16797-0.0117 0.17188-0.0273 0.17188-0.54687-0.17188-1.9961-0.51563-3.7344-0.0547-1.8984 0.5-4.375 1.1445-4.375 1.1445l-0.17579 0.043-0.0195 2.2188 0.27735-0.0469c0.14453-0.0234 3.3125-0.70312 4.9609-1.25 0.043-0.0156 0.0977-0.0273 0.13672-8e-3 0.0352 0.0156 0.0391 0.0156 0.0391 0.0859 0 0.26562-0.043 1.293-0.0312 1.7695 0 0.0625-4e-3 0.12109-0.043 0.16016-0.0312 0.0312-0.0937 0.0234-0.13282 8e-3 -0.33984-0.11328-2.1719-0.12891-4.9961 0.78906l-0.16016 0.0508-0.082 2.8047c0.0156 0.20703 0.125 0.60156 0.46485 0.68359 0.11718 0.0274 0.20703 0.0703 0.22656 0.11719 0.0273 0.0508-0.0703 0.0781-0.0703 0.0781l-8.3516 2.0195c0.29688-0.58985 0.8125-1.6289 0.8125-1.6289l0.0234-0.082c0.0195-0.17187 0.46485-4.2773 0.17578-5.2617-0.29687-1.0078-0.92968-1.6484-1.1367-1.8633l-0.043-0.043c-0.19532-0.1914-0.0977-0.19531 0.2539-0.27344 0.88281-0.20312 15.449-3.5938 15.578-3.6133 0.11328-0.0195 0.3789-0.0625 0.39062 0.11719 0.0274 0.31641 0.0391 1.4492 0.0391 1.8633"/>
   <path d="m330.37 353.11c-0.65625-0.10156-3.1172 0.49609-4.5508 0.90234-0.53515 0.14844-0.99609 0.27735-1.2852 0.34766-0.59766 0.14844-1.0508 0.13672-1.3867-0.0312-0.30078-0.15234-0.52344-0.41406-0.58985-0.81641-0.15234-0.91406 0.75-1.2461 0.78907-1.2656 0.37109-0.24609 6.2422-1.5977 6.5625-1.5898 0.44531 0.0156 0.80859 0.375 0.8789 0.47265 0.14844 0.19531 0.29297 0.10938 0.28516 0.0156-4e-3 -0.28125-8e-3 -1.7578-0.0117-1.9922 0-0.125-0.0508-0.19531-0.12109-0.25781-0.0312-0.0274-0.0781-0.0547-0.13282-0.0547-0.24609 0.0234-2.5195 0.46875-4.3789 0.92969-2.2148 0.55468-5.7188 1.4688-8.1797 2.1211-0.72656 0.19141-1.625 0.46484-2.0391 1.0508-0.86719 1.2266-0.71485 2.3086-0.64844 3.0977 0.0469 0.54687 0.16016 0.88281 0.45703 1.1016 0.58203 0.42188 1.6641 0.19141 1.6758 0.1875 0.043-0.0117 4.2227-1.1211 5.3047-1.3711 0.71875-0.16407 1.3359-0.10938 1.7383 0.15234 0.22656 0.14844 0.36719 0.35547 0.41406 0.59766 0.16407 0.875-0.48047 1.2891-0.83984 1.3867-2.7617 0.67187-7.4102 1.7773-7.6094 1.793-0.33593 0.0234-0.55078-0.24218-0.67578-0.4414-0.0664-0.10547-0.26562-0.11328-0.29297-0.0195-0.0508 0.17968-0.15625 1.8633-0.14062 2.043 0.0273 0.27343 0.33984 0.23828 0.48828 0.19531l4.0664-0.95703c0.0898-0.0195 9.043-2.0898 10.398-2.5859 1.25-0.45703 1.6328-2.7461 1.5117-3.582-0.13281-0.92969-0.96875-1.3164-1.6875-1.4297"/>
   <path d="m330.55 358.12c-1.3555 0.49609-10.309 2.5664-10.398 2.5859l-4.0625 0.95703c-0.15235 0.043-0.46485 0.0781-0.49219-0.19922-0.0156-0.17188 0.0898-1.8594 0.14062-2.0391 0.0274-0.0937 0.22657-0.0859 0.29297 0.0195 0.125 0.19922 0.34375 0.46484 0.67578 0.4375 0.20313-0.0117 4.8477-1.1172 7.6094-1.7891 0.35937-0.0937 1.0039-0.51172 0.83984-1.3867-0.0469-0.24219-0.1875-0.44922-0.41406-0.59766-0.40234-0.26172-1.0195-0.31641-1.7383-0.15234-1.082 0.25-5.2617 1.3594-5.3047 1.3711-0.0117 4e-3 -1.0938 0.23828-1.6758-0.1875-0.29687-0.21875-0.41016-0.55469-0.45703-1.1016-0.0664-0.78906-0.21875-1.8711 0.64844-3.0977 0.41406-0.58594 1.3125-0.85937 2.0391-1.0508 2.4609-0.65234 5.9648-1.5664 8.1797-2.1211 1.8594-0.46094 4.1328-0.90625 4.3789-0.92969 0.0547 0 0.10547 0.0273 0.13282 0.0547 0.0703 0.0664 0.12109 0.13281 0.12109 0.25781 0 0.23437 8e-3 1.7109 0.0117 1.9922 8e-3 0.0937-0.13672 0.17968-0.28516-0.0156-0.0703-0.0937-0.43359-0.45703-0.8789-0.46875-0.32032-0.0117-6.1914 1.3398-6.5625 1.5859-0.043 0.0195-0.94141 0.35156-0.78907 1.2656 0.0664 0.40235 0.28907 0.66407 0.58985 0.81641 0.33203 0.16797 0.78906 0.17969 1.3867 0.0312 0.29296-0.0703 0.75-0.19922 1.2891-0.35156 1.4336-0.40625 3.8906-1.0039 4.5469-0.89844 0.71875 0.11328 1.5547 0.5 1.6875 1.4297 0.1211 0.83594-0.26172 3.125-1.5117 3.582"/>
   <path d="m349.9 344.56-4 0.92187c0.0195 0.0195 0.043 0.0469 0.0742 0.0742 0.28906 0.26953 0.39453 0.97266 0.28515 2.0078-0.125 1.2226-1.9023 4.5898-1.9844 4.7344l-0.19922 0.35156-0.21094-0.34375c-0.0625-0.10156-1.6055-2.4414-2.0273-3.6055-0.36328-1.0117-0.25-1.4219-0.19922-1.5352 0.0859-0.19922 0.30469-0.38672 0.27734-0.4961-0.0195-0.0781-0.082-0.13671-0.22265-0.10156-0.043 0.0117-7.1133 1.6562-7.7656 1.8203-0.0898 0.0234-0.20312 0.043-0.21875 0.10547-0.0117 0.0391 0 0.0742 0.12109 0.15625 0.1836 0.125 0.67188 0.67188 0.75391 0.82032 0.0586 0.10937 3.0156 5.7383 3.4766 6.5391 0.10547 0.17578 0.16797 0.375 0.33985 0.41015 0.11718 0.0195 0.49609-0.0742 0.49609-0.0742l1.6992-0.39844c1.3438-0.28516 3.9609-0.86719 4.2969-0.96485 0.24219-0.0703 0.39454-0.42968 0.39454-0.43359 0.58203-1.2461 1.1719-2.5 1.7266-3.6875 1.5703-3.3438 2.6367-5.5586 2.8945-5.8281 0.21094-0.22266 0.25-0.34766 0.19922-0.44141-0.0391-0.0781-0.11719-0.0508-0.20703-0.0312"/>
   <path d="m349.91 345.04c-0.25781 0.26953-1.3242 2.4844-2.8945 5.8281-0.55469 1.1875-1.1445 2.4414-1.7266 3.6875 0 0-0.15235 0.36328-0.39454 0.43359-0.33593 0.0977-2.9531 0.67969-4.2969 0.96875l-1.6992 0.39454s-0.37891 0.0976-0.49609 0.0742c-0.17188-0.0351-0.23438-0.23437-0.33594-0.41015-0.46484-0.80078-3.4219-6.4297-3.4805-6.5391-0.082-0.14844-0.57031-0.69532-0.75391-0.81641-0.125-0.0859-0.13281-0.12109-0.12109-0.16016 0.0156-0.0664 0.125-0.082 0.21875-0.10547 0.65234-0.16406 7.7227-1.8086 7.7656-1.8203 0.14062-0.0351 0.20312 0.0234 0.22265 0.10156 0.0312 0.10938-0.1914 0.29688-0.27734 0.4961-0.0508 0.11719-0.16406 0.52344 0.19922 1.5352 0.42187 1.1641 1.9648 3.5039 2.0273 3.6055l0.21094 0.34766 0.19922-0.35547c0.082-0.14453 1.8594-3.5117 1.9883-4.7344 0.10547-1.0352 4e-3 -1.7383-0.28906-2.0078-0.0312-0.0273-0.0547-0.0547-0.0742-0.0742l4-0.92187c0.0898-0.0195 0.16797-0.0469 0.20703 0.0312 0.0508 0.0937 0.0117 0.21875-0.19922 0.44141"/>
  </g>
  <g>
   <path d="m313.83 354.95c-4e-3 0.16797-0.0117 0.17188-0.0273 0.17188-0.54687-0.17188-1.9961-0.51563-3.7344-0.0547-1.8984 0.5-4.375 1.1445-4.375 1.1445l-0.17579 0.043-0.0195 2.2188 0.27735-0.0469c0.14453-0.0234 3.3125-0.70312 4.9609-1.25 0.043-0.0156 0.0977-0.0273 0.13672-8e-3 0.0352 0.0156 0.0391 0.0156 0.0391 0.0859 0 0.26562-0.043 1.293-0.0312 1.7695 0 0.0625-4e-3 0.12109-0.043 0.16016-0.0312 0.0312-0.0937 0.0234-0.13282 8e-3 -0.33984-0.11328-2.1719-0.12891-4.9961 0.78906l-0.16016 0.0508-0.082 2.8047c0.0156 0.20703 0.125 0.60156 0.46485 0.68359 0.11718 0.0274 0.20703 0.0703 0.22656 0.11719 0.0273 0.0508-0.0703 0.0781-0.0703 0.0781l-8.3516 2.0195c0.29688-0.58985 0.8125-1.6289 0.8125-1.6289l0.0234-0.082c0.0195-0.17187 0.46485-4.2773 0.17578-5.2617-0.29687-1.0078-0.92968-1.6484-1.1367-1.8633l-0.043-0.043c-0.19532-0.1914-0.0977-0.19531 0.2539-0.27344 0.88281-0.20312 15.449-3.5938 15.578-3.6133 0.11328-0.0195 0.3789-0.0625 0.39062 0.11719 0.0274 0.31641 0.0391 1.4492 0.0391 1.8633m-0.51562-2.4492c-0.14844 0.0352-14.727 3.3984-15.609 3.6211-0.30078 0.0742-0.65625 0.19531-0.73437 0.48047-0.0742 0.26171 0.12891 0.46093 0.26562 0.59375l0.0352 0.0391c0.19141 0.1914 0.75781 0.76953 1.0195 1.6602 0.21875 0.73438-0.0547 3.8438-0.18359 5.0391-0.10156 0.19922-0.57031 1.1367-0.82813 1.6484-0.125 0.25-0.043 0.40625 0.0195 0.48047 0.0899 0.10157 0.23829 0.14063 0.42188 0.14453 0.27734 0 7.0781-1.6484 8.2031-1.918 0.38282-0.0937 0.77344-0.23829 0.80469-0.57813 0.0274-0.31641-0.45312-0.54687-0.57812-0.59766-0.23438-0.0859-0.20313-0.39453-0.20703-0.39453l0.0703-2.3398c2.8086-0.89063 4.4609-0.76953 4.6094-0.71875 0.35547 0.12109 0.65235-0.14063 0.71875-0.32422 0 0 0.043-1.7305 0.0469-2.0781 4e-3 -0.41016-0.27735-0.59766-0.52344-0.5625-0.41797 0.0664-4.0195 1.0664-4.8867 1.2148l0.0117-1.2852c0.59766-0.15625 2.6016-0.67968 4.1992-1.1016 1.7422-0.46094 3.1094-0.10156 3.5039 0.0352 0.12109 0.0391 0.3164 0.0312 0.40234-0.0547 0.14453-0.14063 0.19141-0.45313 0.18359-0.63281 0-0.0586 0.0391-1.4336-0.0156-1.8516-0.0625-0.4375-0.52344-0.57812-0.94922-0.51953"/>
   <path d="m315.59 361.47c-0.0156-0.17969 0.0898-1.8633 0.14062-2.043 0.0274-0.0937 0.22657-0.0859 0.29297 0.0195 0.125 0.19922 0.33985 0.46484 0.67578 0.4414 0.19922-0.0156 4.8477-1.1211 7.6094-1.793 0.35937-0.0977 1.0039-0.51172 0.83984-1.3867-0.0469-0.24219-0.1875-0.44922-0.41406-0.59766-0.40234-0.26172-1.0195-0.31641-1.7383-0.15234-1.082 0.25-5.2617 1.3594-5.3047 1.3711-0.0117 4e-3 -1.0898 0.23438-1.6758-0.1875-0.29687-0.21875-0.41016-0.55078-0.45703-1.1016-0.0664-0.78906-0.21875-1.8711 0.64844-3.0977 0.41406-0.58594 1.3125-0.85937 2.0391-1.0508 2.4609-0.65234 5.9648-1.5664 8.1836-2.1211 1.8555-0.46094 4.1289-0.90625 4.375-0.92969 0.0547 0 0.10157 0.0273 0.13282 0.0547 0.0703 0.0625 0.12109 0.13281 0.12109 0.25781 4e-3 0.23437 8e-3 1.7109 0.0117 1.9922 8e-3 0.0937-0.13672 0.17968-0.28516-0.0156-0.0703-0.0937-0.43359-0.45703-0.8789-0.47265-0.32032-8e-3 -6.1914 1.3438-6.5625 1.5898-0.0391 0.0195-0.94141 0.35156-0.78907 1.2656 0.0664 0.40235 0.28516 0.66407 0.58985 0.8125 0.33593 0.17188 0.78906 0.1836 1.3867 0.0352 0.29296-0.0703 0.75-0.19922 1.2852-0.34766 1.4336-0.40625 3.8906-1.0039 4.5508-0.90234 0.71875 0.11328 1.5547 0.5 1.6875 1.4297 0.1211 0.83594-0.26172 3.125-1.5117 3.582-1.3555 0.49609-10.309 2.5664-10.398 2.5859l-4.0625 0.95703c-0.15235 0.043-0.46485 0.0781-0.49219-0.19531m14.852-8.8281c-0.70312-0.11328-2.6797 0.32813-4.7539 0.91406-0.53125 0.14844-0.98047 0.27735-1.2695 0.34375-0.47656 0.11719-0.83593 0.11719-1.0625 4e-3 -0.17187-0.0859-0.29296-0.24219-0.33984-0.5-0.082-0.45703 0.45703-0.6875 0.5625-0.74609 0.37109-0.19141 5.9258-1.5117 6.3242-1.5234 0.125-4e-3 0.44141 0.13281 0.63672 0.3164 0.21875 0.20313 0.38281 0.32813 0.58203 0.29297 0.29297-0.0508 0.40625-0.32812 0.41406-0.42187 0.043-0.53906-4e-3 -1.9062-4e-3 -2.1641 4e-3 -0.21875-0.10157-0.45313-0.27344-0.61329-0.14453-0.1289-0.31641-0.1914-0.4961-0.17578-0.33203 0.0312-2.8906 0.63282-4.1992 0.94141-1.5195 0.35547-6.1641 1.5273-8.5547 2.1328-1.7734 0.45313-2.1406 1.0547-2.4024 1.5898-0.78906 1.6211-0.70312 3.8008 0.125 4.4883 0.77344 0.63672 2.0312 0.28125 2.082 0.26562 0.043-8e-3 4.2148-1.1172 5.293-1.3633 0.58204-0.13672 1.082-0.10547 1.3672 0.0859 0.11719 0.0742 0.17969 0.17578 0.21094 0.28515 0.16797 0.66797-0.4375 0.82422-0.49609 0.84375-2.8672 0.69532-7.2344 1.7578-7.4805 1.7734-0.16797 0.0117-0.25782-0.14062-0.38672-0.28515-0.22266-0.2461-0.45703-0.2461-0.58985-0.22266-0.28906 0.0469-0.42968 0.14844-0.44531 0.33984-0.0508 0.60938-0.0742 2.4336-0.0742 2.4336 0 0.25 0.12891 0.3789 0.20703 0.43359 0.10157 0.0664 0.22657 0.0937 0.34766 0.0937 0.30469 0 4.4844-1.0312 4.4844-1.0312 0.37109-0.0859 9.0742-2.0977 10.453-2.6055 1.4805-0.54297 1.9609-2.9844 1.8203-4.0938-0.11328-0.89844-0.92187-1.6484-2.082-1.832"/>
   <path d="m338.89 356.35s-0.37891 0.0976-0.49609 0.0742c-0.17188-0.0351-0.23438-0.23437-0.33985-0.41015-0.46093-0.80078-3.418-6.4297-3.4766-6.5391-0.082-0.14844-0.57031-0.69532-0.75391-0.82032-0.12109-0.082-0.1289-0.11718-0.12109-0.15234 0.0156-0.0664 0.12891-0.0859 0.21875-0.10938 0.65234-0.16406 7.7227-1.8086 7.7656-1.8203 0.14062-0.0351 0.20312 0.0234 0.22265 0.10156 0.0312 0.10938-0.1914 0.29688-0.28125 0.4961-0.0469 0.11328-0.16015 0.52344 0.20313 1.5352 0.42187 1.1641 1.9648 3.5039 2.0273 3.6055l0.21094 0.34375 0.19922-0.35156c0.082-0.14453 1.8594-3.5117 1.9844-4.7344 0.10938-1.0352 4e-3 -1.7344-0.28515-2.0078-0.0312-0.0273-0.0547-0.0508-0.0742-0.0742l4-0.92187c0.0898-0.0195 0.16797-0.0469 0.20703 0.0312 0.0508 0.0937 0.0156 0.21875-0.19922 0.44141-0.25781 0.26953-1.3242 2.4844-2.8945 5.8281-0.55469 1.1875-1.1445 2.4414-1.7266 3.6875 0 4e-3 -0.15235 0.36328-0.39454 0.43359-0.33593 0.0977-2.957 0.67969-4.2969 0.96485zm10.98-12.258-0.0508 4e-3c-0.14844 0.0312-3.6719 0.80859-4.0234 0.92578-0.22266 0.0703-0.41406 0.13281-0.46094 0.33203-0.043 0.20313 0.14453 0.34375 0.3086 0.55469 0.19922 0.25 0.35937 0.60156 0.19922 1.5977-0.15625 0.97656-1.1524 3.1289-1.7734 4.2773-0.4336-0.71875-1.4219-2.4258-1.8047-3.2734-0.42578-0.9375-0.14453-1.293-0.12109-1.3242l0.26172-0.40234c0.14453-0.21875 0.0859-0.37891 0.0391-0.45703-0.16016-0.26172-0.57813-0.28906-0.83594-0.22266-0.29687 0.0703-7.2656 1.6992-7.9219 1.8672-0.1211 0.0312-0.4961 0.125-0.55079 0.43359-0.0391 0.20703 0.0859 0.41016 0.35547 0.59375 0.0899 0.0586 0.45313 0.38672 0.67969 0.71875 0.28906 0.42969 3.0078 5.7539 3.4766 6.5391 0.23828 0.39843 0.42188 0.55859 0.6211 0.60937 0.16406 0.043 0.35547 0.0234 0.51172-0.0156l1.9102-0.4336c0.1836-0.0391 3.8984-0.85547 4.3398-0.97656 0.37109-0.10156 0.6914-0.72656 0.6914-0.72656 0.57031-1.2031 1.1602-2.4609 1.7148-3.6445 1.2969-2.7617 2.2305-5.3359 2.7656-5.8008 0.20313-0.17578 0.32422-0.5664 0.32813-0.78906 0-0.26953-0.23438-0.44531-0.66016-0.38672"/>
  </g>
  <g fill="#191719">
   <path d="m304.84 369.74c0.80469-1.3867 1.6016-2.7812 2.3789-4.1797v-0.0195c-0.71875 0.15625-1.4453 0.3125-2.168 0.46875v-0.7461c1.0781-0.23046 2.1562-0.46484 3.2305-0.69531 4e-3 0.21094 4e-3 0.3125 8e-3 0.52344-0.75 1.3789-1.5156 2.75-2.2891 4.1133v0.0234c0.78125-0.17578 1.5625-0.35547 2.3477-0.53125 0 0.29297 4e-3 0.4414 4e-3 0.73828-1.168 0.26562-2.3398 0.53516-3.5117 0.80078z"/>
   <path d="m312.25 368.55c-0.36328-1.5352-0.71875-3.0703-1.082-4.6016 0.32812-0.0703 0.48828-0.10547 0.80859-0.17578 0.14063 0.69922 0.28125 1.4023 0.42188 2.1016 0.10156 0.53907 0.19922 1.0781 0.28906 1.6172 4e-3 0 8e-3 0 0.0117-4e-3 0.0703-0.58593 0.17578-1.168 0.27344-1.75 0.13671-0.75781 0.27343-1.5156 0.40625-2.2734 0.30468-0.0664 0.46093-0.10157 0.76171-0.16797 0.14454 0.70703 0.28907 1.4141 0.42969 2.1211 0.0977 0.51953 0.1836 1.0391 0.26172 1.5664 4e-3 -4e-3 8e-3 -4e-3 0.0117-4e-3 0.0664-0.57812 0.15234-1.1523 0.24609-1.7226 0.125-0.75 0.2461-1.5 0.36719-2.2539 0.28906-0.0625 0.42969-0.0937 0.71484-0.15625-0.3125 1.6758-0.64843 3.3477-0.96484 5.0234-0.30469 0.0703-0.45703 0.10547-0.76562 0.17578-0.15235-0.72266-0.30079-1.4414-0.44922-2.1641-0.0977-0.49219-0.17969-0.97657-0.2461-1.4727-4e-3 0-8e-3 0-0.0117 4e-3 -0.0664 0.53125-0.14453 1.0508-0.24218 1.582-0.14453 0.78906-0.28907 1.5781-0.4336 2.3672-0.32031 0.0742-0.48047 0.11329-0.80859 0.1875"/>
   <path d="m319.54 362.09c0.0352 1.5859 0.0469 3.1758 0.0781 4.7617-0.26953 0.0625-0.40235 0.0937-0.67188 0.15625-0.0312-1.5898-0.0469-3.1758-0.0781-4.7656 0.26953-0.0625 0.40625-0.0937 0.67187-0.15235"/>
   <path d="m325.09 365.45c-0.15235 0.13672-0.50391 0.32032-0.92188 0.42969-1.2461 0.32031-1.8555-0.9414-1.8633-1.9766-8e-3 -1.1875 0.58984-2.6719 1.8945-2.9531 0.42578-0.0898 0.73438-0.043 0.8711 0.0195-0.0508 0.29296-0.0781 0.4375-0.12891 0.72656-0.17188-0.0586-0.41406-0.0899-0.70313-0.0234-0.90625 0.20703-1.2422 1.2109-1.2383 2.0273 0 0.72657 0.36719 1.6406 1.2656 1.4219 0.2539-0.0625 0.53125-0.19531 0.70703-0.33594 0.0469 0.26563 0.0703 0.39844 0.11719 0.66406"/>
   <path d="m327.74 360.22c0.26172-0.0625 0.39453-0.0899 0.66015-0.15235 8e-3 0.72656 0.0117 1.457 0.0117 2.1836 8e-3 0 8e-3 0 0.0156-4e-3 0.0859-0.19922 0.17968-0.38672 0.26562-0.57031 0.32422-0.62891 0.64453-1.2617 0.95703-1.8984 0.32813-0.0742 0.4961-0.11328 0.83203-0.19141-0.41796 0.77735-0.84375 1.5508-1.2695 2.3203 0.45313 0.80468 0.90235 1.6094 1.3555 2.4102-0.3164 0.0742-0.47265 0.10938-0.78906 0.1836-0.34375-0.64844-0.69141-1.293-1.0391-1.9414-0.13282 0.23047-0.19922 0.34766-0.32813 0.57812 0 0.5586 4e-3 1.1172 0.0117 1.6758-0.26172 0.0625-0.39453 0.0937-0.65234 0.15234-0.0234-1.582-0.0117-3.1641-0.0312-4.7461"/>
   <path d="m334.02 362.17c-0.11718 0.47656-0.23046 0.95312-0.33593 1.4336-0.29297 0.0703-0.4375 0.10156-0.72657 0.16797 0.39454-1.6875 0.85938-3.3555 1.2695-5.0391 0.36718-0.0859 0.55078-0.12891 0.92187-0.21485 0.43359 1.4844 0.83984 2.9727 1.2695 4.457-0.32031 0.0703-0.48047 0.10937-0.79687 0.17968-0.1211-0.42187-0.23828-0.84765-0.35547-1.2734-0.41797 0.0976-0.83203 0.1914-1.2461 0.28906m1.1367-0.91406c-0.12109-0.42969-0.17968-0.64844-0.29687-1.082-0.0742-0.26953-0.13672-0.57812-0.19141-0.84375-8e-3 4e-3 -8e-3 4e-3 -0.0117 4e-3 -0.0625 0.28906-0.1289 0.63672-0.19531 0.92969-0.10547 0.41015-0.21484 0.82031-0.32031 1.2266 0.40234-0.0898 0.60547-0.13672 1.0156-0.23437"/>
   <path d="m340.15 357.37c-4e-3 0.92187-0.0234 1.8438-0.0469 2.7695 0.0312 0.53906 0.14453 1.3281 0.87891 1.1484 0.70703-0.17579 0.97656-0.90625 0.98437-1.5781 0.0274-0.92187 0.0508-1.8438 0.0547-2.7695 0.33594-0.0781 0.50391-0.11719 0.84766-0.19531-8e-3 0.90625-0.0312 1.8125-0.0586 2.7148-8e-3 1.1914-0.67187 2.2656-1.8594 2.5469s-1.668-0.66797-1.6445-1.7344c0.0234-0.90625 0.043-1.8125 0.0469-2.7227 0.31641-0.0703 0.47656-0.10937 0.79688-0.17968"/>
  </g>
  <path d="m346.11 334.09c-0.11718-0.0859-0.96093 0.83203-1.6484 1.2148-0.20703 0.11328-0.32813 0.15625-0.41797 0.17968 0 0 0.043-0.0781 0.15625-0.29296 0.1875-0.35157 0.29687-0.7461 0.39844-1.0859 0.0937-0.31641 0.53906-2.9727-0.0508-3.1719-0.28906-0.10156-0.62109 1.1016-1.3516 1.6914-0.40625 0.32812-1.2812 0.64453-1.75 0.66797-0.0469 4e-3 -0.0898 4e-3 -0.14062 4e-3 -0.34766 0-0.83985-0.0469-1.3633-0.0937-0.62891-0.0586-1.2774-0.12109-1.8672-0.125h-0.0508c-1.4062 0-2.5898 0.33985-3.4453 1.0352 0.0352-0.13672 0.41797-1.6406 0.56641-2.6602 0.17969-1.2461-0.125-2.1836-0.92969-2.8633-1.1484-0.97265-2.9336-1.3047-3.6484-1.4023-0.27344-0.0352-0.53516-0.0547-0.77344-0.0547-0.88281 0-1.4258 0.25391-1.7617 0.57422-0.0664 0.0664-0.11719 0.13672-0.16797 0.20313v-0.0117s-8e-3 0.0117-0.0156 0.0312c-0.0352 0.0469-0.0664 0.0976-0.0937 0.14453-0.0117 8e-3 -0.0195 0.0195-0.0274 0.0312-0.0508 0.0391-0.22656 0.10547-0.42969 0.17578-0.59375 0.20703-1.8828 0.80078-1.8828 0.80078s-0.32812 0.13672-0.33203 0.21875c-8e-3 0.0742 0.17188 0.10547 0.17188 0.10547l1.0742 0.19531-0.87109 0.48828s-0.22656 0.11328-0.20703 0.19532c0.0234 0.1289 0.25 0.10937 0.25 0.10937s0.65234-0.0352 1.2031-0.0898c0.55079-0.0547 1.0469 0.0273 1.0469 0.0273l0.48828 0.16406c0.47656 0.32422 1.0469 0.38282 1.3828 0.38282 0.10938 0 0.21485-4e-3 0.3125-0.0156 0.27344-0.0312 0.51563-0.0781 0.82422-0.13672 0.16797-0.0312 0.35938-0.0625 0.58985-0.10547 0.76562-0.14453 0.98046 0.0352 1.0234 0.13672 0.0352 0.0742-4e-3 0.17969-8e-3 0.25-0.0312 0.34766-0.21094 1.0156-0.30078 1.3359-0.14844 0.55859-0.44531 1.3555-0.70313 2.0586-0.17968 0.48828-0.35156 0.94922-0.46093 1.3008-0.16016 0.50391-0.3125 1.0859-0.16407 1.7227-0.54687-0.14062-1.2031-0.25781-2.0625-0.25781h-0.13671c-0.90235 0.0117-1.7344 0.19531-2.4531 0.53515 0.0117-0.14062 0.0234-0.28125 0.0391-0.42187 0.0742-0.83594 0.15235-1.6992 0.14453-2.3633-0.0234-1.3203-0.43359-1.8945-0.76171-2.3516-0.0312-0.0469-0.0625-0.0899-0.0937-0.13282-0.4961-0.71875-1.8047-1.6172-2.5274-1.9414-0.69922-0.32032-1.3086-0.48828-1.9141-0.53907-0.0586-4e-3 -0.13672-8e-3 -0.22656-8e-3 -1.1094 0-1.8984 0.47656-2.1602 1.2422-0.0703 0.0273-0.15234 0.0586-0.24219 0.0898-0.59765 0.20703-1.8828 0.60157-1.8828 0.60157s-0.28906 0.0469-0.30859 0.15234c-0.0195 0.10547 0.0937 0.14844 0.14843 0.17187 0.44532 0.20313 1.2969 0.25 1.2969 0.25l-1.0936 0.62905s-0.22656 0.11719-0.20703 0.20313c0.0234 0.125 0.25 0.10546 0.25 0.10546s1.3828 8e-3 1.9297 0.10157c0.48046 0.082 0.88671 0.14062 1.2148 0.1875 0.34375 0.12109 0.69531 0.14843 0.97656 0.14843 0.0937 0 0.1836-4e-3 0.26563-8e-3l0.10937-4e-3h0.0899c0.13281 0 0.29296-4e-3 0.46875-4e-3 0.63671 0 0.85937 0.043 0.92578 0.0625 0.30078 0.0859 0.57031 0.26562 0.73828 0.46094 0.14844 0.16797 0.17187 0.7539 0.13281 1.2891-0.0234 0.27344-0.10937 0.78125-0.21094 1.3125-0.0859-4e-3 -0.60547-0.0312-1.3125-0.19531-0.35937-0.0859-0.72265-0.1875-1.1094-0.29297-1.1289-0.3125-2.293-0.63672-3.5703-0.63672h-0.0469c-1.3867 8e-3 -2.5781 0.44531-3.3945 1.2383-8e-3 -0.20703-8e-3 -0.4375 4e-3 -0.70703 0.13281-3.3711-0.28516-5.7305-1.2344-7.0117-0.80469-1.0898-2.5898-1.6055-3.5273-1.6758-0.0625-4e-3 -0.12891-8e-3 -0.20313-8e-3 -0.86719 0-1.8047 0.33593-2.2617 1.0547-0.0273 0.0234-0.0469 0.0469-0.0664 0.0625-0.0508 0.0391-0.22657 0.10547-0.42969 0.17579-0.59375 0.20703-2.2578 0.45703-2.2578 0.45703s-0.34375 0.0508-0.34375 0.15234c0 0.10938 0.19531 0.20313 0.19531 0.20313l0.97266 0.54687-0.46094 0.32031s-0.32031 0.20313-0.30078 0.28907c0.0234 0.125 0.25 0.10156 0.25 0.10156s0.80078 8e-3 1.3516-0.0469c0.55078-0.0547 1.0469 0.0312 1.0469 0.0312l0.27735 0.0899c0.27344 0.29297 0.64453 0.51172 1.1094 0.625 0.12891 0.0351 0.26953 0.0469 0.42578 0.0469 0.25782 0 0.52344-0.0391 0.80079-0.082 0.28515-0.043 0.57812-0.0859 0.85156-0.0859 0.0625 0 0.125 0 0.1875 8e-3 0.26172 0.0234 0.58203 0.26562 0.65234 0.38281 0.0781 0.13281 0.21094 0.58203 0.21875 2.0547 4e-3 0.75-0.19922 2.0938-0.36328 3.1758-0.0781 0.52734-0.15625 1.0273-0.20312 1.4219-0.0664 0.5625-0.0899 1.5234 8e-3 2.4024 0.21875 1.9492 1.5234 3.2773 3.5781 3.6484 0.35157 0.0625 0.76563 0.0937 1.2344 0.0937 1.668 0 4.0938-0.42187 5.2617-1.125l0.10547-0.0664c0.69921-0.41797 1.3359-0.80469 1.9492-1.7656 8e-3 0.13672 0.0195 0.26953 0.0352 0.39453 0.35938 2.3867 2.2227 3.0742 2.9219 3.3359 0.75 0.27734 1.7578 0.4375 2.7578 0.4375 0.47265 0 0.94531-0.0352 1.4141-0.10547 1.9531-0.28515 3.4492-0.89453 4.707-1.918 0.74219-0.59765 1.7422-1.5117 2.3281-2.2734 0.0312-0.043 0.0508-0.082 0.0781-0.1211 2.5977 0.26172 3.9219-0.18359 4.9062-0.64844 0.97266-0.46093 2.6211-1.4805 3.4727-3.1328 0.87109-1.6914 1.0898-3.5625 0.91015-3.6992"/>
  <g fill="#fff">
   <path d="m330.49 327.98c-0.84766-0.11718-2.0469-0.10546-2.1758 0.90235-0.15625 1.2031 1.0898 1.293 1.5586 1.2383 0.38672-0.0469 0.72266-0.125 1.3711-0.23828 0.63282-0.10938 1.3789 0.0508 1.6953 0.33984 0.27343 0.2461 0.25 0.56641 0.22265 0.875-0.0351 0.41406-0.22265 1.1094-0.32422 1.4766-0.26172 0.98047-0.90234 2.543-1.1719 3.3906-0.17969 0.55469-0.27735 1.0352-0.082 1.5391 0.28125 0.70703 1.9922 0.87891 2.7422 0.875 0.46485-4e-3 1.1875-0.16406 1.1875-0.16406s0.26954-0.0703 0.31641 0.0312c0.0508 0.125-0.0391 0.28516-0.082 0.36719-0.13281 0.25-0.42969 0.69922-0.5625 0.98437-0.0664 0.14453-0.13281 0.33203-0.0234 0.44922 0.1211 0.12891 0.59766 0.0781 0.78516 0.0469 0.39844-0.0664 0.88281-0.16016 1.1719-0.23829 0.0742-0.0234 0.17969-0.0312 0.22657 0.0391 0.043 0.0625-0.0352 0.21093-0.0352 0.21093l-0.25 0.46485s-0.10938 0.16797-0.043 0.24609c0.0547 0.0625 0.17188 0.0586 0.24609 0.0625 2.1016 0.0274 3.3789-0.34765 4.3789-0.82422 0.875-0.41406 1.9414-0.92968 2.9492-2.5195 0.25-0.39062 0.71875-1.2031 0.87891-1.6367 0.0508-0.13672 0.16015-0.42187 0.0547-0.45703-0.24609-0.0781-1.5352 0.92188-2.2031 1.1836-0.22656 0.0898-0.41016 0.082-0.46875 0-0.0664-0.0859-0.0156-0.25 0.082-0.4375 0.30469-0.6211 0.74609-1.5781 0.94922-2.2774 0.0586-0.19922 0.10937-0.57812 0-0.66015-0.0703-0.0547-0.28516 0.0156-0.55469 0.16015-0.54297 0.30078-1.1133 0.64453-1.8164 0.67969-0.76562 0.0391-1.6758-0.14063-2.8125-0.1875-1.0078-0.043-1.8789-0.0352-2.9531 0.40625-0.77344 0.31641-2.1289 1.0977-2.1289 1.0977s0.625-2.8789 0.78907-4.0391c0.15234-1.0898-0.13672-1.7226-0.66407-2.1641-0.90625-0.76172-2.3945-1.1055-3.2539-1.2227"/>
   <path d="m319.29 331.75c-0.0586 1.4805 1.2188 1.3359 1.7695 1.3281 0.42969-8e-3 1.2969-0.0352 1.707 0.0859 0.45313 0.1289 0.9336 0.46093 1.1406 0.73046 0.30078 0.38282 0.32422 1.3633 0.28906 1.8242-0.0586 0.78516-0.5664 3.0938-0.5664 3.0938s-0.39063 2.1524-0.21485 3.3203c0.26953 1.8125 1.5352 2.3945 2.4219 2.7226 0.76172 0.28125 2.1719 0.53125 3.793 0.29297 2.125-0.30859 3.3984-0.99219 4.332-1.75 0.63672-0.51953 1.6289-1.4102 2.1992-2.1484 0.0625-0.0781 0.17187-0.24609 0.10937-0.32031-0.082-0.10156-0.36328-0.0312-0.49609-0.0117-0.38672 0.0508-0.8125 0.11328-1.2188 0.10156-0.0742-4e-3 -0.36719 0-0.46485-0.13281-0.0937-0.13281 0.0977-0.42187 0.0977-0.42187s0.38672-0.65625 0.54297-0.90625c0.0742-0.1211 0.28125-0.42578 0.22656-0.51953-0.0508-0.0937-0.14062-0.0859-0.65625-0.0586-0.60156 0.0312-1.3047-0.0976-2.5977-0.44922-0.76562-0.20703-1.6172-0.57812-3.125-0.55859-1.0664 0.0156-2.0352 0.25391-2.9219 0.94531-0.0898 0.0703-0.42578 0.30469-0.42578 0.30469s0.0117-0.23438 0.0586-0.89844c0.0781-1.0703 0.25-2.4531 0.23438-3.3633-0.0195-1.2031-0.39453-1.5938-0.71485-2.0547-0.39453-0.57031-1.582-1.3945-2.2109-1.6797-0.53125-0.23829-1.082-0.42188-1.6602-0.46875-0.33203-0.0274-1.6133-4e-3 -1.6484 0.99218"/>
   <path d="m307.05 329.62c0.0859-1.0039 1.3476-1.2109 1.9102-1.168 0.84766 0.0664 2.3555 0.53907 2.9648 1.3672 0.96484 1.3008 1.2578 3.8555 1.082 6.5234-0.11719 1.8594 0.30469 2.4297 0.30469 2.4297s0.54296-0.74219 0.85546-1.0547c0.83594-0.83594 1.6562-1.0977 3.0117-1.1055 1.6094-0.0117 3.125 0.57422 4.543 0.90625 0.8711 0.20703 1.4024 0.28906 1.4024 0.28906s-0.082 0.79688-0.32422 1.5469c-0.86719 2.6836-1.5625 3.0078-2.6484 3.6641-1.1758 0.70703-4.3438 1.2188-5.957 0.92969-1.375-0.2461-2.7344-1.0781-2.9453-2.9727-0.0859-0.76172-0.0781-1.6719-0.0117-2.2266 0.14453-1.2188 0.57812-3.5117 0.57031-4.6914-4e-3 -0.61718-0.0156-1.9062-0.32031-2.4375-0.19141-0.33203-0.73828-0.72265-1.2539-0.76562-0.82422-0.0742-1.6797 0.25-2.1523 0.13281-0.41797-0.10156-1.1133-0.41797-1.0312-1.3672"/>
   <path d="m308.49 340.95-8e-3 -0.0586c-0.0312-0.26171-0.082-0.52734-0.14843-0.80078-0.33985-1.4023-1.0859-2.6641-2.1562-3.6445l-0.0547-0.0508c-0.0391-0.0391-0.082-0.0781-0.125-0.11328-0.10156-0.0898-0.20703-0.17188-0.3125-0.25-0.0547-0.043-0.10938-0.0859-0.16797-0.125-0.11719-0.0859-0.23828-0.16797-0.36328-0.24609l-0.11328-0.0742c-1.8711-1.1367-4.1758-1.3828-6.2812-0.61328-0.66797 0.24609-1.2969 0.58593-1.8672 1.0156s-1.0742 0.9375-1.5 1.5156c-0.42187 0.57421-0.75391 1.207-0.99609 1.8828-0.0586 0.16797-0.11328 0.33984-0.14844 0.49219l-0.0156 0.0391c-0.16796 0.63281-0.2539 1.2695-0.2539 1.8867 0 1.0938 0.24219 2.1562 0.72656 3.1562l0.043 0.0898c0.0742 0.15234 0.15625 0.30078 0.24219 0.44531l0.0469 0.0781c0.49219 0.8125 1.1289 1.5117 1.9062 2.0898 1.2656 0.9336 2.7578 1.4258 4.3164 1.4258 0.0508 0 0.10156-4e-3 0.15234-8e-3 0.0312 0 0.0625-4e-3 0.0937-4e-3 0.76563-0.0273 1.5156-0.16796 2.2305-0.42968l0.0547-0.0195c2.1602-0.80079 3.8281-2.5977 4.4648-4.8086 0.0664-0.23047 0.11719-0.4375 0.15625-0.63672 4e-3 -0.0312 8e-3 -0.0625 0.0117-0.0937l0.0156-0.0859c0.0273-0.16016 0.0547-0.32422 0.0703-0.49219 0.0234-0.23438 0.0351-0.47266 0.0351-0.70703 0-0.26172-0.0195-0.54297-0.0547-0.85547"/>
  </g>
  <path d="m307.12 339.93-0.67968-2.3555 0.13281-0.16015c0.63281 0.76562 1.0976 1.6719 1.3555 2.6602zm-0.82422 4.2422 1.3672 0.19922c-0.45312 1.125-1.1953 2.1016-2.1289 2.8438l-0.62891-1.5156zm-4.6094-1.2383 1.2461-1.3555 2.2539 0.49609 0.6875 1.7305-1.4492 1.5859-1.8281-0.21094zm-0.30469 5.7695c-0.0391 0-0.0781 4e-3 -0.12109 4e-3 -1.3242 0-2.5625-0.38281-3.6133-1.0352l0.64843-0.83594 2.4922 0.60156zm-0.53906-1.8281-2.4102-0.58593-0.68359-1.7734 1.5469-1.793 1.8438 0.35937 0.91797 2.2578zm-1.1406-8.2305-1.3242 1.3438-2.2266-0.47656-0.55078-1.6289c0.46875-0.67188 1.0469-1.2539 1.7188-1.7227l1.6719 0.32422zm4.2734-1.1797 1.9375 0.30859 0.66406 2.293-1.3047 1.4531-2.2422-0.49609-0.51953-1.7695zm-0.42578-0.36328-1.4922 1.8203-1.8086-0.41016-0.72266-2.2031 1.2578-1.3711c0.16015-0.0117 0.3164-0.0234 0.47656-0.0234 0.53906 0 1.0586 0.0664 1.5625 0.18359zm-8.6523 6.9961-0.0937 0.10937c-0.26563-0.70703-0.41797-1.4688-0.4336-2.2656zm-0.0664-2.6367 1.1875-1.4062 2.207 0.47656 0.63672 1.8359-1.5781 1.8281-1.8477-0.26172zm13.66-0.50781-8e-3 -0.0586c-0.0351-0.26171-0.082-0.53125-0.14843-0.80078-0.33985-1.4023-1.0859-2.6641-2.1562-3.6445l-0.0547-0.0508c-0.0391-0.0391-0.082-0.0781-0.125-0.11328-0.10156-0.0898-0.20703-0.17188-0.3125-0.25391-0.0547-0.0391-0.10938-0.082-0.16797-0.125-0.11719-0.082-0.23828-0.16406-0.35937-0.24609l-0.11719-0.0703c-1.8711-1.1367-4.1758-1.3828-6.2812-0.61328-0.66797 0.24609-1.2969 0.58593-1.8672 1.0156s-1.0742 0.9375-1.4961 1.5156c-0.42578 0.57421-0.76172 1.207-0.9961 1.8789-0.0625 0.17188-0.11328 0.34375-0.15234 0.4961l-0.0156 0.0391c-0.16796 0.63281-0.2539 1.2656-0.2539 1.8867 0 1.0938 0.24219 2.1562 0.72656 3.1562l0.043 0.0898c0.0742 0.15234 0.15625 0.30078 0.24219 0.44531l0.0469 0.0781c0.49219 0.8125 1.1289 1.5117 1.9062 2.0898 1.2656 0.9336 2.7578 1.4258 4.3164 1.4258 0.0508 0 0.10156-4e-3 0.15234-8e-3 0.0312 0 0.0625-4e-3 0.0937-4e-3 0.76563-0.0273 1.5156-0.17187 2.2305-0.42968l0.0547-0.0195c2.1602-0.80079 3.8281-2.5977 4.4648-4.8125 0.0664-0.22657 0.11719-0.4336 0.15625-0.63282 4e-3 -0.0312 8e-3 -0.0625 0.0117-0.0937l0.0156-0.0859c0.0273-0.16016 0.0547-0.32422 0.0703-0.49219 0.0234-0.23828 0.0351-0.47656 0.0351-0.70703 0-0.26172-0.0156-0.54297-0.0547-0.85547"/>
 </g>
</svg>
