<svg id="Gruppe_2452" data-name="Gruppe 2452" xmlns="http://www.w3.org/2000/svg" xmlns:xlink="http://www.w3.org/1999/xlink" width="114.358" height="92.665" viewBox="0 0 114.358 92.665">
  <defs>
    <clipPath id="clip-path">
      <rect id="Rechteck_856" data-name="Rechteck 856" width="114.358" height="92.665" fill="none"/>
    </clipPath>
  </defs>
  <g id="Gruppe_2451" data-name="Gruppe 2451" clip-path="url(#clip-path)">
    <path id="Pfad_1247" data-name="Pfad 1247" d="M361.584,253.6l.013-9.789a11.164,11.164,0,0,1,9.784,9.789Z" transform="translate(-278.155 -187.556)" fill="#eb6406" fill-rule="evenodd"/>
    <path id="Pfad_1248" data-name="Pfad 1248" d="M307.91,253.6a11.167,11.167,0,0,1,9.78-9.787l.006,9.787Z" transform="translate(-236.866 -187.561)" fill="#eb6406" fill-rule="evenodd"/>
    <path id="Pfad_1249" data-name="Pfad 1249" d="M361.584,297.422l9.8-.005a11.184,11.184,0,0,1-9.8,9.776Z" transform="translate(-278.155 -228.794)" fill="#eb6406" fill-rule="evenodd"/>
    <path id="Pfad_1250" data-name="Pfad 1250" d="M317.683,297.416l0,9.768a11.175,11.175,0,0,1-9.787-9.774Z" transform="translate(-236.853 -228.788)" fill="#eb6406" fill-rule="evenodd"/>
    <path id="Pfad_1251" data-name="Pfad 1251" d="M89.815,58.749V69.478A22.147,22.147,0,0,0,69.03,90.3L58.3,90.3A32.876,32.876,0,0,1,89.815,58.749" transform="translate(-44.85 -45.194)" fill="#eb6406" fill-rule="evenodd"/>
    <path id="Pfad_1252" data-name="Pfad 1252" d="M45,11.092A35.356,35.356,0,0,0,11,45.121l-10.95,0A46.141,46.141,0,0,1,45,.018Z" transform="translate(-0.038 -0.014)" fill="#eb6406" fill-rule="evenodd"/>
    <path id="Pfad_1253" data-name="Pfad 1253" d="M230.625,304.226a13.3,13.3,0,0,1-2.7-6.818l-4.92,0v14.532h-.066L217.9,297.41H206.6v24.011h7.639V306.788h.066l5.038,14.632h11.295Z" transform="translate(-158.935 -228.787)" fill="#003d81" fill-rule="evenodd"/>
    <path id="Pfad_1254" data-name="Pfad 1254" d="M400.463,302.856l9.1.009c2.04,0,2.832.731,2.832,2.427s-.923,2.594-3.36,2.594l-9.87.007-.009,13.529h9.418v-8.081h3.1c6.651,0,9.747-3.26,9.747-8.049,0-4.523-2.7-7.881-8.432-7.881l-10.622,0a13.422,13.422,0,0,1-1.9,5.447" transform="translate(-307.055 -228.788)" fill="#003d81" fill-rule="evenodd"/>
    <path id="Pfad_1255" data-name="Pfad 1255" d="M207.057,11.079a35.375,35.375,0,0,1,34,34.04l10.885.008A46.133,46.133,0,0,0,207.057,0Z" transform="translate(-159.283)" fill="#003d81" fill-rule="evenodd"/>
    <path id="Pfad_1256" data-name="Pfad 1256" d="M207.057,58.749A32.882,32.882,0,0,1,238.58,90.313l-10.741.007a21.944,21.944,0,0,0-20.782-20.843Z" transform="translate(-159.283 -45.194)" fill="#003d81" fill-rule="evenodd"/>
    <path id="Pfad_1257" data-name="Pfad 1257" d="M44.965,241.465a35.372,35.372,0,0,1-34.01-33.987l0-.061H0a46.344,46.344,0,0,0,44.965,44.808Z" transform="translate(0 -159.56)" fill="#003d81" fill-rule="evenodd"/>
    <path id="Pfad_1258" data-name="Pfad 1258" d="M89.737,238.964A32.884,32.884,0,0,1,58.2,207.418H69.051a22.193,22.193,0,0,0,20.686,20.715Z" transform="translate(-44.771 -159.56)" fill="#003d81" fill-rule="evenodd"/>
  </g>
</svg>
