<?xml version="1.0" encoding="UTF-8" standalone="no"?>
<!DOCTYPE svg PUBLIC "-//W3C//DTD SVG 1.0//EN" "http://www.w3.org/TR/2001/REC-SVG-20010904/DTD/svg10.dtd">
<svg xmlns="http://www.w3.org/2000/svg" version="1.0" viewBox="0.00 0.00 591.00 161.00" width="591.00" height="161.00">
<path fill="#ffffff" d="
  M 73.63 0.00
  L 86.49 0.00
  Q 118.76 3.37 139.70 26.03
  C 173.06 62.12 166.03 119.88 125.47 147.22
  Q 106.69 159.88 83.12 161.00
  L 78.25 161.00
  L 78.25 133.07
  A 0.29 0.29 0.0 0 1 78.55 132.78
  Q 96.03 133.43 109.72 123.85
  C 139.76 102.83 140.68 60.18 111.51 38.26
  Q 97.19 27.50 78.67 27.98
  C 54.99 28.59 35.05 45.38 29.43 67.97
  Q 27.87 74.21 27.93 83.68
  Q 28.09 111.60 27.97 140.90
  A 0.29 0.29 0.0 0 1 27.48 141.12
  Q 3.29 119.51 0.00 86.85
  L 0.00 73.80
  Q 2.00 52.94 12.82 36.55
  Q 34.15 4.25 73.63 0.00
  Z"
/>
<path fill="#ffffff" d="
  M 523.75 110.44
  L 523.75 155.00
  Q 523.75 155.25 523.50 155.25
  L 495.52 155.25
  Q 494.78 155.25 494.78 154.52
  L 494.42 7.09
  Q 494.42 6.58 494.93 6.58
  Q 507.35 6.64 522.36 5.67
  Q 534.20 4.90 545.94 6.65
  C 574.00 10.84 591.58 28.11 590.65 57.66
  C 589.42 96.61 558.91 110.62 524.50 109.70
  Q 523.75 109.68 523.75 110.44
  Z
  M 560.19 58.15
  C 560.78 44.49 556.52 33.35 541.56 30.88
  Q 532.92 29.44 524.28 30.37
  Q 523.75 30.43 523.75 30.97
  L 523.75 84.45
  Q 523.75 85.05 524.35 85.09
  Q 533.79 85.79 542.48 83.99
  C 555.90 81.22 559.65 70.70 560.19 58.15
  Z"
/>
<path fill="#ffffff" d="
  M 247.88 70.54
  C 248.17 72.31 248.52 74.33 248.52 76.07
  Q 248.44 115.28 248.16 154.64
  Q 248.16 155.25 247.55 155.25
  L 219.98 155.25
  Q 219.32 155.25 219.30 154.59
  Q 219.17 150.64 219.27 145.82
  Q 220.74 78.27 222.01 7.04
  Q 222.02 6.50 222.56 6.50
  L 250.32 6.50
  A 0.48 0.47 79.0 0 1 250.76 6.80
  L 291.86 107.23
  Q 292.13 107.90 292.40 107.23
  L 332.65 6.91
  Q 332.82 6.50 333.26 6.50
  L 360.06 6.51
  A 0.57 0.56 -0.5 0 1 360.63 7.06
  L 364.18 154.66
  Q 364.19 155.25 363.59 155.25
  L 336.04 155.25
  Q 335.14 155.25 335.13 154.35
  Q 334.75 112.35 334.31 74.81
  C 334.30 73.38 334.61 72.08 334.68 70.65
  Q 334.69 70.34 334.58 70.63
  L 300.69 154.94
  A 0.51 0.50 -78.4 0 1 300.23 155.25
  L 282.54 155.25
  A 0.56 0.56 0.0 0 1 282.02 154.90
  Q 266.21 116.40 250.21 77.62
  C 249.22 75.20 248.98 72.85 248.10 70.48
  Q 247.70 69.42 247.88 70.54
  Z"
/>
<path fill="#ffffff" d="
  M 422.88 129.25
  L 475.62 129.25
  A 0.38 0.38 0.0 0 1 476.00 129.63
  L 476.00 154.87
  A 0.38 0.38 0.0 0 1 475.62 155.25
  L 393.88 155.25
  A 0.38 0.38 0.0 0 1 393.50 154.87
  L 393.50 6.89
  A 0.38 0.38 0.0 0 1 393.88 6.51
  L 422.13 6.53
  A 0.38 0.38 0.0 0 1 422.51 6.91
  L 422.50 128.87
  A 0.38 0.38 0.0 0 0 422.88 129.25
  Z"
/>
<path fill="#ffffff" d="
  M 91.86 73.06
  C 84.21 61.78 66.73 66.65 66.73 80.39
  Q 66.76 121.33 66.76 159.15
  Q 66.76 159.75 66.17 159.64
  Q 51.87 156.92 39.97 149.98
  Q 39.49 149.70 39.49 149.14
  Q 39.54 114.90 39.47 82.10
  Q 39.46 74.93 41.05 69.45
  C 49.81 39.35 85.71 29.63 108.48 51.00
  C 120.53 62.32 124.46 79.96 118.37 95.46
  C 111.97 111.75 96.55 121.82 78.76 121.24
  Q 78.25 121.22 78.25 120.71
  L 78.25 94.69
  Q 78.25 93.96 78.97 94.02
  Q 87.00 94.64 91.62 88.16
  C 94.78 83.73 94.88 77.51 91.86 73.06
  Z"
/>
</svg>
