<?xml version="1.0" encoding="UTF-8"?>
<svg version="1.1" xmlns="http://www.w3.org/2000/svg" width="500" height="154">
<path d="M0 0 C7.92 0 15.84 0 24 0 C25.13695312 2.78179688 26.27390625 5.56359375 27.4453125 8.4296875 C36.93094755 31.63327664 46.44025479 54.82684137 56 78 C58.6411721 75.3588279 59.6245491 72.32022844 60.96508789 68.90405273 C61.25638077 68.17384918 61.54767365 67.44364563 61.84779358 66.6913147 C62.81084469 64.27393911 63.76665394 61.85376456 64.72265625 59.43359375 C65.38948458 57.75712039 66.05684486 56.08085854 66.72471619 54.40480042 C68.48283246 49.98953699 70.23517876 45.57200836 71.98590088 41.15380859 C74.7907122 34.07714195 77.60246234 27.00323899 80.4175396 19.93065071 C81.40215916 17.45371148 82.38325716 14.97539788 83.36402893 12.49693298 C83.96400346 10.98675933 84.56408987 9.47663012 85.16430664 7.96655273 C85.43809143 7.27198471 85.71187622 6.57741669 85.99395752 5.86180115 C87.88636524 1.11363476 87.88636524 1.11363476 89 0 C90.70772358 -0.08713831 92.41898649 -0.10700007 94.12890625 -0.09765625 C95.68061523 -0.09282227 95.68061523 -0.09282227 97.26367188 -0.08789062 C98.35228516 -0.07951172 99.44089844 -0.07113281 100.5625 -0.0625 C102.2012207 -0.05573242 102.2012207 -0.05573242 103.87304688 -0.04882812 C106.58208759 -0.03699825 109.29100822 -0.01967721 112 0 C112.81324377 11.56347859 113.26334778 23.10408934 113.53515625 34.69140625 C113.5783834 36.45190374 113.6217989 38.21239662 113.66539001 39.97288513 C113.75553298 43.6411401 113.84353398 47.30943816 113.92993164 50.9777832 C114.03913322 55.60786956 114.15357445 60.23780872 114.26949501 64.86773109 C114.73606627 83.58360254 115.12312377 102.27697898 115 121 C107.08 121 99.16 121 91 121 C90.34 100.54 89.68 80.08 89 59 C80.75 79.46 72.5 99.92 64 121 C58.72 121 53.44 121 48 121 C39.50601113 101.06512817 31.22080778 81.04872312 23 61 C22.9845388 62.10540382 22.9845388 62.10540382 22.96876526 63.23313904 C22.87095357 70.16421076 22.76846284 77.09519902 22.66066074 84.02612209 C22.60539973 87.58972968 22.55197482 91.15334543 22.50268555 94.71704102 C22.44599468 98.81015245 22.38142682 102.9031061 22.31640625 106.99609375 C22.29133751 108.92418129 22.29133751 108.92418129 22.26576233 110.89122009 C22.24581711 112.07236893 22.22587189 113.25351776 22.20532227 114.47045898 C22.18977798 115.51636703 22.1742337 116.56227509 22.15821838 117.63987732 C22 120 22 120 21 121 C19.21928754 121.08726223 17.4351686 121.10699041 15.65234375 121.09765625 C14.57275391 121.09443359 13.49316406 121.09121094 12.38085938 121.08789062 C11.24455078 121.07951172 10.10824219 121.07113281 8.9375 121.0625 C7.79732422 121.05798828 6.65714844 121.05347656 5.48242188 121.04882812 C2.65489649 121.03699747 -0.1725264 121.0205141 -3 121 C-2.70103531 100.79439771 -2.39116176 80.58898359 -2.06964111 60.38372803 C-2.02420086 57.52765379 -1.97907145 54.67157497 -1.93426514 51.81549072 C-1.81523612 44.23938449 -1.6913104 36.66338594 -1.55929565 29.0874939 C-1.51981726 26.78220348 -1.48199141 24.47688416 -1.4458313 22.17153931 C-1.39544087 18.98145124 -1.3391473 15.79152188 -1.28125 12.6015625 C-1.26770981 11.66399612 -1.25416962 10.72642975 -1.24021912 9.76045227 C-1.22346634 8.90702744 -1.20671356 8.0536026 -1.18945312 7.17431641 C-1.17692505 6.43549225 -1.16439697 5.69666809 -1.15148926 4.93545532 C-1 3 -1 3 0 0 Z " fill="#042A4B" transform="translate(191,17)"/>
<path d="M0 0 C0.96873047 -0.01611328 1.93746094 -0.03222656 2.93554688 -0.04882812 C19.02536771 -0.05956183 34.94158021 6.739086 46.5859375 17.82885742 C59.59695563 31.0847307 65.96810912 47.93909822 66.00439453 66.42651367 C65.70199935 83.98223408 58.74661958 99.60630571 46.6875 112.3125 C35.17431769 123.37762277 19.98083376 130.42485558 3.9375 130.5 C2.205 130.438125 0.4725 130.37625 -1.3125 130.3125 C-1.3125 122.7225 -1.3125 115.1325 -1.3125 107.3125 C0.95625 106.920625 3.225 106.52875 5.5625 106.125 C17.28980271 103.8646815 26.71030604 98.85479463 34.25390625 89.3359375 C40.97446536 79.26512951 42.976629 67.5152198 40.625 55.6875 C38.20546423 46.53486696 33.40040087 38.01043888 25.6875 32.3125 C14.26668752 25.73168542 3.78588753 22.15472489 -9.51171875 24.99609375 C-19.63896381 28.12114632 -28.34679714 33.37878576 -34.3125 42.3125 C-37.82648992 49.39510145 -40.39285369 55.98064861 -40.51782227 63.90722656 C-40.53776749 65.02808655 -40.55771271 66.14894653 -40.57826233 67.30377197 C-40.59497482 68.50805847 -40.61168732 69.71234497 -40.62890625 70.953125 C-40.64968735 72.19044373 -40.67046844 73.42776245 -40.69187927 74.70257568 C-40.74615872 77.98388691 -40.79641779 81.26522733 -40.84472656 84.54663086 C-40.89506092 87.89833104 -40.9507636 91.2499372 -41.00585938 94.6015625 C-41.11294509 101.17180464 -41.21473036 107.74211298 -41.3125 114.3125 C-52.53883714 109.01260067 -58.1491758 96.58133641 -62.375 85.53515625 C-67.49776664 69.1570802 -65.7760906 51.5828942 -58.76171875 36.05859375 C-56.34898314 31.48675242 -53.47293257 27.39323912 -50.3125 23.3125 C-49.87550781 22.69890625 -49.43851563 22.0853125 -48.98828125 21.453125 C-37.66873692 6.63234023 -17.9499405 -0.05900704 0 0 Z " fill="#A3825A" transform="translate(76.3125,11.6875)"/>
<path d="M0 0 C7.5440986 6.89374528 11.15464928 16.35993019 11.875 26.40625 C11.99327325 40.19986775 9.20427327 51.51529188 -0.125 61.90625 C-11.61443982 72.90884915 -26.95526403 74.40625 -42.125 74.40625 C-42.125 86.61625 -42.125 98.82625 -42.125 111.40625 C-50.375 111.40625 -58.625 111.40625 -67.125 111.40625 C-67.125 71.47625 -67.125 31.54625 -67.125 -9.59375 C-16.97115385 -12.72836538 -16.97115385 -12.72836538 0 0 Z M-42.125 10.40625 C-42.125 24.59625 -42.125 38.78625 -42.125 53.40625 C-29.93017853 54.11649222 -29.93017853 54.11649222 -19.6015625 49.08203125 C-13.73127465 42.61792816 -13.68210188 35.35551132 -13.8125 27.05078125 C-14.21133709 22.39934369 -15.10468647 19.00097898 -18.125 15.40625 C-25.97041511 9.03185022 -31.33053924 10.40625 -42.125 10.40625 Z " fill="#042A4B" transform="translate(477.125,26.59375)"/>
<path d="M0 0 C7.92 0 15.84 0 24 0 C24 32.67 24 65.34 24 99 C38.19 99 52.38 99 67 99 C67 106.26 67 113.52 67 121 C44.89 121 22.78 121 0 121 C0 81.07 0 41.14 0 0 Z " fill="#042A4B" transform="translate(329,17)"/>
<path d="M0 0 C1.31525687 0.72985352 2.60962105 1.49923319 3.875 2.3125 C4.80505859 2.8384375 4.80505859 2.8384375 5.75390625 3.375 C12.73489457 7.71738582 17.13891053 15.07783567 19.40234375 22.87109375 C21.34111445 32.88540521 19.70336517 41.84730694 14.51953125 50.6015625 C9.42727559 57.89181591 2.70629354 62.68149534 -6.125 64.3125 C-9.095 64.3125 -12.065 64.3125 -15.125 64.3125 C-15.125 56.7225 -15.125 49.1325 -15.125 41.3125 C-12.485 40.6525 -9.845 39.9925 -7.125 39.3125 C-4.09763318 36.85276445 -4.12310882 35.29760699 -3.625 31.375 C-3.763039 28.01186797 -4.15570758 27.27005129 -6.25 24.375 C-9.47708593 22.05991662 -11.16260154 21.3125 -15.125 21.3125 C-18.21619455 22.44197493 -20.40011884 23.24243276 -22.27694702 26.01300049 C-23.39956066 29.05697248 -23.40725293 31.67225964 -23.44384766 34.91699219 C-23.45389328 35.57106552 -23.4639389 36.22513885 -23.47428894 36.89903259 C-23.50508234 39.05247145 -23.52214496 41.2057862 -23.5390625 43.359375 C-23.55777729 44.85582545 -23.57735094 46.35226538 -23.5977478 47.84869385 C-23.64904238 51.78100378 -23.68868228 55.71334791 -23.72589111 59.64581299 C-23.76594761 63.66109662 -23.81703243 67.67623831 -23.8671875 71.69140625 C-23.96391508 79.56500714 -24.04832987 87.43867837 -24.125 95.3125 C-29.36303875 94.71888482 -33.55525374 94.00900388 -38.4375 91.875 C-39.44425781 91.44316406 -40.45101562 91.01132813 -41.48828125 90.56640625 C-44.125 89.3125 -44.125 89.3125 -47.125 87.3125 C-47.4992218 84.89268494 -47.4992218 84.89268494 -47.49731445 81.81225586 C-47.50354324 80.66023178 -47.50977203 79.5082077 -47.51618958 78.3212738 C-47.50237495 76.44327843 -47.50237495 76.44327843 -47.48828125 74.52734375 C-47.48877975 73.24195206 -47.48927826 71.95656036 -47.48979187 70.63221741 C-47.48970203 67.9041884 -47.47925838 65.17645414 -47.46118164 62.44848633 C-47.43865148 58.97419369 -47.43792031 55.50033772 -47.44469929 52.02599239 C-47.44887683 48.69306124 -47.43683464 45.36026002 -47.42578125 42.02734375 C-47.42669266 40.78951645 -47.42760406 39.55168915 -47.42854309 38.27635193 C-47.32870661 25.97916555 -45.43539268 15.73318873 -36.8125 6.5 C-27.55069107 -2.23487888 -11.82622518 -5.09184695 0 0 Z " fill="#A3825A" transform="translate(90.125,45.6875)"/>
</svg>
